<?xml version="1.0" standalone="no"?>
<!DOCTYPE svg PUBLIC "-//W3C//DTD SVG 20010904//EN"
 "http://www.w3.org/TR/2001/REC-SVG-20010904/DTD/svg10.dtd">
<svg version="1.0" xmlns="http://www.w3.org/2000/svg"
 width="1000.000000pt" height="1000.000000pt" viewBox="0 0 1000.000000 1000.000000"
 preserveAspectRatio="xMidYMid meet">
<metadata>
Created by potrace 1.11, written by Peter Selinger 2001-2013
</metadata>
<g transform="translate(0.000000,1000.000000) scale(0.100000,-0.100000)"
fill="#000000" stroke="none">
<path d="M6213 9268 c-6 -7 -29 -46 -53 -87 -57 -98 -94 -138 -218 -231 -112
-84 -245 -155 -357 -190 -59 -19 -87 -22 -185 -19 -309 9 -452 4 -540 -20
-173 -46 -325 -135 -438 -255 -78 -84 -114 -146 -153 -266 -26 -78 -32 -116
-37 -217 -8 -198 -6 -206 208 -658 250 -529 276 -630 287 -1075 9 -406 9 -404
-432 -945 -108 -133 -155 -202 -155 -229 0 -8 -10 -27 -22 -41 -19 -21 -36
-27 -98 -34 -124 -14 -176 -48 -396 -261 -106 -103 -189 -173 -245 -208 -46
-30 -138 -88 -204 -129 -440 -278 -736 -570 -927 -913 -109 -196 -220 -350
-271 -376 -16 -9 -54 -35 -85 -59 -72 -55 -166 -85 -292 -92 -85 -5 -112 -2
-239 28 -121 28 -144 31 -151 18 -17 -26 2 -52 139 -199 75 -80 208 -226 297
-325 228 -255 266 -289 362 -318 65 -21 210 -57 289 -73 15 -3 26 -18 37 -51
53 -156 198 -328 335 -396 64 -32 83 -37 145 -37 43 -1 81 -6 96 -15 37 -21
59 -18 72 10 13 30 -5 81 -33 90 -10 3 -39 -1 -65 -10 -72 -24 -100 -10 -229
119 -124 123 -151 163 -212 316 -55 137 -65 145 -162 128 -63 -11 -81 -10
-139 5 -142 37 -164 54 -294 217 -24 29 -79 80 -123 111 -91 65 -165 140 -165
168 0 37 84 77 240 115 166 40 199 52 286 107 106 67 152 130 224 303 99 238
156 327 352 556 249 291 370 393 594 502 78 37 171 89 205 115 103 75 225 190
279 263 57 77 90 104 175 148 120 60 196 77 345 77 161 0 223 -14 360 -82 76
-37 110 -61 171 -122 93 -94 142 -176 141 -237 0 -62 -57 -222 -101 -291 -43
-67 -71 -90 -231 -195 -63 -42 -180 -125 -260 -185 -183 -138 -227 -167 -430
-288 -91 -54 -196 -119 -235 -145 -105 -70 -280 -165 -366 -199 -190 -76 -410
-116 -604 -109 -114 4 -141 9 -220 37 -189 68 -204 69 -191 15 12 -45 77 -100
133 -112 26 -6 202 -13 390 -16 368 -6 397 -3 508 48 55 25 342 205 556 349
75 51 275 175 445 277 169 102 342 210 383 241 212 157 333 357 335 554 1 87
-20 147 -83 239 -50 73 -155 173 -211 201 -72 36 -294 87 -415 94 -94 6 -100
7 -103 28 -4 30 44 118 88 163 20 20 61 67 92 105 31 39 95 115 143 170 190
221 236 339 266 691 31 361 -76 778 -305 1188 -139 248 -185 374 -193 532 -7
131 13 228 73 349 106 215 288 364 519 427 69 18 103 21 245 19 398 -6 393 -6
455 13 72 21 299 129 375 178 80 51 163 130 191 182 29 55 55 63 45 14 -4 -18
-11 -66 -16 -107 -12 -93 -32 -129 -250 -461 -227 -346 -300 -471 -359 -614
-120 -292 -143 -470 -105 -822 14 -128 14 -171 4 -301 -14 -164 -10 -240 20
-373 35 -157 70 -264 122 -370 83 -171 138 -290 169 -367 15 -40 66 -148 112
-240 46 -92 108 -222 137 -288 65 -145 68 -149 87 -133 37 30 -7 171 -165 528
-99 223 -277 689 -317 828 -38 135 -54 246 -67 481 -16 276 -16 556 0 646 8
39 31 142 52 230 33 132 50 181 104 290 120 243 287 508 446 710 31 39 73 106
95 150 38 77 40 84 43 198 5 136 -2 181 -29 208 -22 22 -81 26 -96 7z"/>
<path d="M4976 8424 c-65 -24 -102 -59 -136 -131 -18 -38 -45 -83 -61 -101
-38 -43 -79 -126 -118 -237 -18 -49 -41 -108 -51 -131 -27 -54 -26 -68 3 -59
46 14 75 17 81 6 19 -30 25 1 23 132 -2 159 2 173 81 274 51 64 96 91 168 103
63 10 95 35 154 116 l31 44 -68 -1 c-37 0 -86 -7 -107 -15z m29 -69 c-21 -13
-41 -22 -44 -19 -9 9 42 44 64 43 15 0 10 -6 -20 -24z"/>
<path d="M6189 4888 c-27 -50 -16 -106 48 -233 71 -141 100 -231 144 -450 26
-135 31 -174 26 -250 -3 -49 -12 -110 -20 -135 -54 -164 -105 -275 -233 -511
-175 -323 -182 -340 -199 -443 -8 -44 -18 -103 -24 -131 -6 -27 -15 -96 -21
-152 -15 -160 -90 -325 -220 -487 -97 -120 -220 -224 -427 -359 -77 -51 -117
-86 -167 -146 -78 -95 -139 -143 -314 -247 -97 -57 -134 -85 -139 -102 -26
-103 229 -20 444 144 80 62 138 122 180 191 21 34 49 57 118 98 51 30 113 77
143 109 59 61 87 70 118 35 10 -11 24 -43 29 -71 7 -34 17 -55 33 -66 21 -14
25 -12 90 58 37 40 96 97 132 127 91 77 160 159 160 191 0 28 -21 92 -30 92
-11 0 -200 -176 -226 -210 -14 -19 -39 -62 -55 -95 l-28 -60 6 62 c5 52 3 64
-11 69 -25 10 -20 22 35 82 105 115 203 284 239 414 11 40 34 192 50 337 34
307 36 315 156 456 95 111 166 219 231 350 69 138 100 220 112 294 20 126 -31
320 -180 676 -44 107 -87 225 -95 263 -8 37 -22 78 -32 92 -26 34 -57 37 -73
8z"/>
<path d="M5915 4871 c-55 -25 -101 -81 -146 -177 -70 -148 -83 -247 -54 -400
21 -111 47 -185 132 -378 120 -271 131 -348 91 -592 -11 -72 -18 -139 -14
-149 19 -50 70 71 97 229 13 80 6 237 -16 318 -7 29 -53 139 -100 243 -101
221 -117 266 -135 359 -30 160 7 274 146 447 41 51 74 99 74 106 0 18 -28 16
-75 -6z"/>
<path d="M9735 4300 c-100 -59 -146 -122 -194 -267 -56 -165 -77 -386 -50
-512 14 -69 32 -81 67 -48 15 14 47 36 72 49 56 29 93 93 84 147 -3 22 2 65
15 111 44 155 90 550 65 550 -5 0 -31 -14 -59 -30z"/>
<path d="M7991 4281 c-22 -22 -75 -154 -98 -244 -22 -88 -14 -219 21 -316 38
-109 35 -134 -30 -260 -40 -78 -54 -115 -49 -130 3 -11 11 -21 17 -21 12 0
153 105 201 149 76 70 137 207 137 309 0 46 -7 73 -35 129 -19 38 -41 76 -50
83 -13 11 -15 7 -15 -29 0 -22 -4 -41 -10 -41 -13 0 -19 48 -23 205 -2 77 -7
148 -11 157 -12 26 -35 29 -55 9z"/>
<path d="M6730 4014 c0 -9 6 -42 14 -73 8 -31 17 -77 21 -103 10 -77 26 -79
91 -13 51 51 55 59 46 81 -6 13 -26 30 -44 38 -18 7 -49 30 -67 50 -37 38 -61
46 -61 20z"/>
<path d="M6628 3854 c-41 -89 -51 -196 -20 -234 l20 -25 29 21 c44 33 75 116
68 188 -6 68 -23 109 -48 114 -13 3 -25 -13 -49 -64z"/>
<path d="M8377 3773 c-3 -5 -15 -34 -27 -65 -11 -31 -41 -87 -65 -124 -25 -37
-45 -74 -45 -81 0 -9 17 -13 59 -13 73 0 117 27 149 91 28 56 22 90 -19 120
-16 11 -29 28 -29 37 0 23 -16 46 -23 35z"/>
<path d="M6875 3708 c-105 -92 -175 -226 -175 -332 0 -23 11 -80 25 -126 14
-46 25 -95 25 -110 0 -14 7 -35 14 -46 15 -19 16 -18 72 11 124 65 177 144
178 267 0 51 -4 72 -18 87 -28 31 -48 14 -105 -94 -29 -52 -56 -95 -61 -95
-18 0 -21 42 -6 101 9 33 43 111 75 172 65 123 80 170 61 192 -19 23 -33 18
-85 -27z"/>
<path d="M7439 3689 c-7 -14 -8 -42 -4 -77 l7 -56 -41 52 c-47 60 -89 84 -134
80 -27 -2 -33 -8 -35 -31 -5 -42 42 -130 108 -200 31 -34 64 -76 73 -93 17
-34 37 -46 55 -35 14 9 33 57 28 73 -3 7 -7 27 -11 43 l-7 30 24 -22 c33 -32
47 -29 64 13 41 99 -79 311 -127 223z"/>
<path d="M1672 3649 c-32 -56 -53 -115 -60 -173 -4 -27 -12 -51 -18 -53 -6 -2
-23 27 -38 65 -48 122 -99 143 -133 54 -21 -56 -21 -127 1 -169 21 -42 94
-103 123 -103 13 0 35 7 48 16 32 21 45 11 45 -36 0 -82 24 -91 70 -28 61 84
73 178 41 313 -17 70 -47 155 -54 155 -1 0 -12 -18 -25 -41z"/>
<path d="M1806 3543 c-21 -77 -17 -143 9 -143 32 0 45 69 24 129 -12 35 -25
40 -33 14z"/>
<path d="M8672 3438 c-6 -7 -19 -51 -30 -98 -12 -47 -37 -137 -57 -200 -41
-130 -53 -220 -35 -265 11 -28 12 -29 25 -11 8 10 17 39 21 63 5 35 14 49 43
71 80 60 157 147 174 197 31 88 24 115 -50 203 -44 52 -71 63 -91 40z"/>
<path d="M1275 3220 c-11 -35 21 -123 57 -156 93 -88 121 -13 32 87 -24 27
-48 58 -54 69 -14 25 -27 26 -35 0z"/>
<path d="M6462 3224 c-13 -8 -35 -44 -51 -79 -16 -35 -43 -84 -60 -108 -17
-25 -47 -84 -68 -132 -21 -49 -43 -90 -49 -92 -7 -2 -19 3 -27 12 -30 29 -40
18 -34 -38 7 -71 62 -208 102 -254 67 -78 130 -38 222 142 48 92 56 118 56
160 -1 28 -2 91 -3 140 -1 50 3 109 9 133 14 52 1 84 -45 113 -28 17 -32 17
-52 3z"/>
<path d="M7836 3168 c-8 -13 -33 -57 -55 -98 -37 -68 -41 -72 -41 -43 0 48
-16 84 -35 77 -30 -12 -114 -223 -171 -431 -20 -75 -24 -101 -15 -119 14 -31
32 -23 65 26 16 25 49 52 90 75 67 37 93 64 177 178 57 79 82 126 97 180 15
52 7 67 -32 64 l-31 -2 -3 58 c-3 63 -20 75 -46 35z"/>
<path d="M9823 3068 c-11 -13 -39 -52 -63 -88 -44 -66 -91 -132 -130 -183 -12
-15 -26 -25 -31 -21 -5 3 -9 40 -9 82 0 187 -105 205 -156 27 -13 -46 -18
-107 -19 -265 -1 -113 -6 -230 -10 -261 -5 -43 -4 -58 8 -67 12 -10 19 -7 41
18 14 17 34 54 43 83 10 29 32 79 48 112 28 55 37 64 119 111 169 99 243 203
248 347 3 75 2 78 -27 102 -37 30 -37 30 -62 3z"/>
<path d="M8275 3060 c-9 -10 -21 -41 -26 -67 -15 -80 21 -297 55 -331 14 -14
16 -12 27 14 6 16 15 88 20 159 5 72 12 146 15 166 3 21 1 46 -5 58 -15 27
-62 28 -86 1z"/>
<path d="M520 3061 c-45 -12 -37 -48 29 -140 33 -46 86 -134 117 -195 31 -61
74 -135 96 -163 43 -56 67 -111 68 -155 0 -17 11 -35 31 -52 33 -28 42 -29
104 -17 36 7 49 3 123 -36 84 -44 108 -47 97 -12 -4 11 -2 19 6 19 9 0 10 21
4 81 -3 45 -9 88 -12 96 -3 8 -34 28 -67 43 -90 40 -133 97 -174 232 -45 146
-81 187 -217 252 -97 46 -160 60 -205 47z"/>
<path d="M7088 2618 c-8 -14 -13 -58 -13 -113 0 -103 10 -129 80 -201 38 -40
48 -46 72 -40 15 4 34 13 42 21 39 38 13 220 -37 253 -14 9 -45 36 -69 60 -23
23 -47 42 -52 42 -6 0 -16 -10 -23 -22z"/>
<path d="M6804 2563 c-3 -16 -19 -65 -35 -110 -44 -126 -17 -163 80 -113 53
26 81 65 81 109 0 31 -8 44 -54 89 -30 28 -57 52 -60 52 -3 0 -8 -12 -12 -27z"/>
<path d="M1441 2436 c-16 -65 -14 -235 4 -285 23 -65 48 -95 149 -171 138
-103 162 -95 160 55 -2 110 -19 154 -89 235 -27 30 -63 79 -82 108 -30 46 -96
102 -122 102 -5 0 -14 -20 -20 -44z"/>
<path d="M172 2398 c-17 -17 -15 -130 4 -208 38 -163 161 -265 357 -297 50 -8
106 -21 126 -29 42 -18 61 -12 61 18 0 26 -147 176 -265 270 -83 67 -213 192
-238 231 -20 30 -27 33 -45 15z"/>
<path d="M7926 2322 c-19 -26 -56 -63 -83 -82 -107 -76 -233 -212 -233 -252 0
-24 21 -23 64 3 19 11 71 35 115 54 95 39 152 82 175 129 18 38 23 196 6 196
-6 0 -26 -22 -44 -48z"/>
<path d="M3154 2155 c-4 -9 -4 -58 0 -109 10 -127 -20 -286 -52 -286 -5 0 -35
16 -68 36 -32 20 -73 45 -91 56 -58 35 -64 5 -13 -62 15 -19 50 -80 78 -135
42 -81 64 -111 116 -157 100 -89 146 -101 146 -37 0 35 15 128 36 231 15 72
11 113 -16 168 -10 19 -32 85 -50 145 -17 61 -37 121 -43 134 -15 31 -35 38
-43 16z"/>
<path d="M9392 2063 c-64 -31 -97 -122 -49 -131 91 -17 172 73 117 128 -24 24
-26 24 -68 3z"/>
<path d="M8354 1985 c-50 -21 -112 -100 -134 -173 -11 -35 -20 -70 -20 -77 0
-7 -9 -23 -19 -36 l-19 -24 -6 28 c-3 15 -8 38 -11 52 -12 57 -78 5 -115 -90
-29 -77 -36 -178 -20 -269 7 -39 12 -84 12 -100 -2 -93 44 -99 100 -14 39 59
73 83 153 108 114 36 196 105 240 203 39 85 43 160 14 242 -41 116 -112 177
-175 150z"/>
<path d="M7011 1934 c-12 -15 -21 -31 -21 -36 0 -5 -20 -43 -45 -86 -50 -84
-57 -128 -26 -156 38 -35 130 13 168 87 19 38 13 121 -14 174 -23 47 -36 50
-62 17z"/>
<path d="M6117 1874 c-37 -36 -50 -94 -44 -186 6 -97 40 -173 107 -244 61 -64
64 -96 20 -184 -32 -64 -39 -110 -16 -110 8 0 33 23 57 51 23 27 68 68 100 90
32 21 72 59 89 83 48 71 118 222 130 284 6 31 15 72 20 90 10 38 4 62 -15 62
-20 0 -95 -87 -119 -140 -22 -48 -106 -130 -133 -130 -22 0 -41 42 -63 135
-11 49 -27 96 -34 105 -8 8 -21 31 -29 50 -8 19 -21 43 -29 53 -13 18 -15 17
-41 -9z"/>
<path d="M7808 1738 c-19 -24 -52 -73 -73 -110 -22 -38 -45 -68 -52 -68 -7 0
-24 23 -38 50 -14 28 -32 50 -39 50 -24 0 -40 -70 -40 -180 0 -85 5 -123 27
-199 32 -115 43 -129 86 -111 38 16 98 81 118 129 41 97 96 291 100 356 7 121
-31 156 -89 83z"/>
<path d="M6673 1563 c-20 -32 -48 -75 -61 -95 -14 -21 -50 -59 -81 -85 -107
-91 -173 -158 -193 -197 -38 -75 -33 -214 8 -230 23 -9 46 7 98 69 27 31 92
91 145 134 195 158 233 238 177 370 -13 31 -27 64 -30 74 -9 29 -24 19 -63
-40z"/>
<path d="M5928 1588 c-20 -19 -72 -108 -133 -222 -19 -36 -35 -29 -59 26 -13
30 -31 60 -39 67 -26 21 -70 10 -85 -21 -17 -35 0 -142 33 -215 25 -55 104
-143 129 -143 21 0 44 36 62 97 12 42 25 60 72 100 130 110 153 170 104 272
-10 19 -27 40 -39 48 -20 14 -24 13 -45 -9z"/>
<path d="M3372 1524 c-14 -10 -14 -14 1 -37 28 -43 100 -70 197 -74 47 -2 94
-6 106 -8 11 -3 56 -34 100 -71 102 -85 124 -96 209 -107 131 -15 120 -19 120
38 -1 64 -46 168 -72 163 -9 -2 -20 -14 -23 -28 -3 -14 -13 -26 -23 -28 -17
-4 -138 63 -197 108 -68 53 -76 54 -244 55 -103 0 -164 -4 -174 -11z"/>
<path d="M1868 1518 c-3 -7 0 -30 5 -52 7 -27 6 -71 -3 -146 -13 -115 -10
-148 20 -198 27 -44 55 -42 78 6 30 60 33 87 17 166 -21 102 -51 186 -77 213
-24 26 -34 29 -40 11z"/>
<path d="M911 1471 c-10 -19 -8 -26 18 -51 34 -35 88 -40 147 -15 70 29 27 69
-88 81 -61 6 -67 5 -77 -15z"/>
<path d="M2972 1385 c-6 -14 -18 -25 -26 -25 -32 0 -34 -57 -4 -119 26 -55
287 -318 354 -357 74 -44 90 -13 34 66 -11 16 -28 70 -39 122 -22 108 -66 211
-107 250 -17 16 -54 33 -88 42 -32 9 -69 23 -82 31 -30 19 -29 19 -42 -10z"/>
<path d="M4280 1305 c-24 -63 -1 -133 96 -295 68 -113 84 -147 84 -179 0 -51
29 -76 67 -58 35 16 141 160 149 203 8 46 -4 57 -69 64 l-52 5 -7 66 c-11 112
-35 143 -143 184 -108 41 -113 41 -125 10z"/>
<path d="M6815 1289 c-22 -17 -61 -41 -86 -54 -26 -13 -58 -38 -73 -55 -27
-33 -35 -80 -13 -80 30 0 162 32 189 46 37 19 60 72 56 127 -4 53 -20 56 -73
16z"/>
<path d="M2653 1194 c-9 -24 13 -79 62 -159 66 -106 106 -140 195 -164 85 -24
140 -27 140 -8 0 21 -111 177 -165 231 -28 29 -68 57 -90 65 -22 7 -52 22 -67
32 -32 23 -67 24 -75 3z"/>
<path d="M7846 1169 c-11 -55 -7 -89 10 -96 23 -9 46 8 61 45 13 32 13 32 -31
70 -24 19 -33 15 -40 -19z"/>
<path d="M1543 1183 c-17 -6 -16 -58 2 -92 16 -32 103 -81 142 -81 35 0 83 28
83 49 0 26 -36 55 -120 95 -75 36 -84 39 -107 29z"/>
<path d="M5064 1118 c-23 -103 5 -206 66 -241 68 -40 100 -4 81 92 -9 45 -21
65 -69 117 -31 34 -60 62 -64 63 -3 0 -10 -14 -14 -31z"/>
<path d="M3834 1098 l-42 -10 29 -71 c47 -113 94 -190 149 -241 71 -66 104
-78 250 -86 136 -8 170 -19 226 -72 67 -63 110 -9 61 75 -40 67 -105 125 -205
184 -57 33 -116 78 -150 114 -40 43 -67 62 -97 70 -22 6 -64 19 -93 30 -58 21
-67 21 -128 7z"/>
<path d="M1393 1065 c-77 -33 -6 -88 110 -87 21 1 41 3 44 6 13 13 -10 56 -41
75 -39 24 -68 26 -113 6z"/>
<path d="M6949 1053 c-5 -16 -12 -34 -14 -40 -12 -35 27 -57 53 -31 13 13 16
56 6 82 -10 25 -33 19 -45 -11z"/>
<path d="M5887 1045 c-15 -8 -40 -24 -54 -35 l-26 -21 -28 30 c-27 30 -27 30
-74 16 -61 -18 -95 -50 -95 -88 0 -58 22 -108 64 -141 22 -17 61 -53 88 -79
58 -58 78 -53 78 21 0 42 4 49 63 106 74 71 108 140 89 181 -14 29 -60 34
-105 10z"/>
<path d="M6725 881 c-43 -26 -85 -78 -85 -106 0 -34 23 -49 52 -34 79 40 127
103 108 139 -13 25 -36 25 -75 1z"/>
<path d="M2744 826 c-24 -63 76 -170 157 -168 43 1 84 24 87 50 7 46 -97 115
-192 128 -37 5 -47 4 -52 -10z"/>
<path d="M4646 774 c-26 -25 -56 -64 -67 -86 -41 -80 -22 -176 29 -149 27 14
121 135 134 172 8 22 6 37 -9 66 -10 20 -23 38 -29 40 -6 2 -33 -17 -58 -43z"/>
</g>
</svg>
